<?xml version="1.0" encoding="UTF-8"?>
<svg id="_图层_1" data-name="图层_1" xmlns="http://www.w3.org/2000/svg" version="1.1" viewBox="0 0 80.16 75">
  <!-- Generator: Adobe Illustrator 29.1.0, SVG Export Plug-In . SVG Version: 2.1.0 Build 142)  -->
  <defs>
    <style>
      .st0 {
        fill: #231f20;
      }
    </style>
  </defs>
  <path class="st0" d="M42.36,0C21.68,0,4.86,16.82,4.86,37.5s16.82,37.5,37.5,37.5,37.5-16.82,37.5-37.5S63.04,0,42.36,0ZM42.36,73.23c-19.7,0-35.73-16.03-35.73-35.73S22.66,1.77,42.36,1.77s35.73,16.03,35.73,35.73-16.03,35.73-35.73,35.73ZM11.52,44.68c.57-.12.88-.46.93-1.01h.02c.24.38.58.54,1.02.47.71-.17.99-.68.83-1.52l-.26-1.37-4.17.78.26,1.37c.22.93.67,1.36,1.36,1.27ZM13.52,42.18l.11.61c.06.34-.07.54-.4.6-.32.06-.5-.08-.57-.42l-.11-.61.97-.18ZM11.86,42.49l.11.61c.11.43-.04.67-.45.73-.39.09-.61-.09-.66-.53l-.11-.61,1.1-.21ZM34.41,64.8c-1.11-.3-1.88.24-2.34,1.62-.38,1.36-.01,2.21,1.09,2.57,1.09.29,1.86-.23,2.3-1.56.38-1.4.03-2.28-1.05-2.63ZM34.65,67.19c-.29.98-.73,1.38-1.32,1.21-.6-.18-.75-.76-.46-1.74.3-1,.75-1.4,1.34-1.22.59.17.73.76.43,1.76ZM44.96,65.9l.11,3.32-.02.02-1.34-3.31-1.04.04.14,4.24.65-.02-.11-3.5.02-.02,1.38,3.49,1-.03-.14-4.24-.65.02ZM40.53,65.83c-1.14,0-1.75.73-1.82,2.19,0,1.4.57,2.13,1.73,2.19,1.13,0,1.73-.71,1.8-2.12,0-1.45-.58-2.2-1.71-2.26ZM40.45,69.59c-.63-.01-.93-.53-.91-1.55.02-1.04.35-1.55.97-1.54.61.01.91.54.89,1.58-.02,1.03-.34,1.53-.95,1.52ZM38.91,65.76l-2.96-.47-.11.7,1.08.17-.55,3.48.79.12.55-3.48,1.08.17.11-.7ZM14.25,51.54l2.59-1.17-.32-.71-2.57,1.16s-.03.02-.06.03c-.49.18-.79.14-.9-.1-.12-.27.06-.51.53-.72l-.33-.73c-.85.43-1.1.99-.77,1.7.36.73.97.91,1.83.54ZM18.88,53.68l-2.81,1.77h-.03s2.19-2.81,2.19-2.81l-.54-.87-3.59,2.25.34.54,2.97-1.87h.03s-2.33,2.94-2.33,2.94l.52.84,3.59-2.25-.34-.54ZM17.01,50.7l-3.72,2.04.38.7,3.72-2.04-.38-.7ZM17.87,55.77c-1.07.84-1.32,1.71-.74,2.6.2.26.37.46.51.6.16.21.35.39.57.53l1.7-1.28-.85-1.13-.57.43.41.54-.71.54s-.04-.03-.02-.03c-.2-.16-.36-.32-.47-.47-.37-.52-.16-1.09.64-1.7.83-.61,1.44-.66,1.83-.16.28.37.23.7-.15.98l.48.63c.74-.54.78-1.25.12-2.12-.71-.8-1.63-.79-2.76.03ZM28.78,62.53l-1.98,3.75.71.37,1.98-3.75-.71-.37ZM27.58,61.9l-1.47,2.41s-.02.03-.04.06c-.3.42-.57.56-.8.43-.25-.15-.24-.45.03-.89l-.68-.42c-.46.83-.35,1.44.33,1.84.71.39,1.31.2,1.81-.59l1.48-2.43-.66-.4ZM11.52,46.15l1.07-.32.45,1.49.68-.21-.45-1.49.94-.29.49,1.6.68-.21-.72-2.37-4.06,1.23.73,2.43.68-.21-.5-1.66ZM15.56,47.16l-3.98,1.45.27.75,3.98-1.45-.27-.75ZM47.89,67.37l.15.69.63-.14.2.87s-.04.03-.04,0c-.22.11-.42.19-.59.23-.6.12-1.01-.31-1.24-1.29-.21-1-.02-1.58.57-1.72.43-.1.7.09.8.55l.73-.16c-.19-.9-.79-1.23-1.8-1.01-.97.31-1.31,1.15-1.03,2.51.32,1.32.98,1.91,1.99,1.76.3-.07.54-.14.72-.21.24-.05.47-.15.68-.29l-.46-2.08-1.31.29ZM27.86,66.96l.7.29.6-.72,1.34.56-.09.93.74.31.44-4.41-.87-.36-2.87,3.39ZM30.83,64.5l-.24,1.86-.98-.41,1.2-1.46h.02ZM69.76,53.1c-.52-.32-.9-.31-1.15.02h-.02c.16-.5.02-.9-.43-1.22-.6-.39-1.14-.24-1.63.44l-.88,1.31,3.51,2.37.45-.66-1.41-.95.47-.7c.11-.16.33-.16.64.03.34.21.68.39,1.03.53l.48-.71c-.19-.02-.51-.15-.95-.4-.03-.02-.07-.04-.12-.06ZM67.99,53.47l-.37.54-.93-.63.37-.54c.2-.32.45-.37.75-.17.33.22.39.49.18.8ZM63.11,56.82l1.78,2.95h-.01s-2.93-1.8-2.93-1.8l-.51.51,3.79,2.21.51-.51-2.17-3.82-.47.46ZM60.65,59.25l2.8,3.19.6-.53-2.8-3.19-.6.53ZM67.07,57.71l-.89-.69.96-1.23-.56-.44-.96,1.23-.78-.61,1.03-1.32-.56-.44-1.52,1.95,3.34,2.61,1.56-2-.56-.44-1.07,1.37ZM59.81,59.82l1.95,2.69v.03l-2.94-2-.83.6,2.49,3.43.52-.38-2.06-2.84v-.03s3.08,2.13,3.08,2.13l.8-.58-2.49-3.43-.52.38ZM57.75,61.36l-.68.42,1.21,1.97c.27.42.41.74.4.96.01.24-.11.45-.38.61-.26.16-.5.18-.73.07-.2-.09-.42-.36-.68-.79l-1.21-1.97-.68.42,1.39,2.26c.58.88,1.32,1.06,2.23.54.86-.56,1.02-1.3.51-2.22l-1.39-2.26ZM73.07,43.46l-2.59-1.66-.14.72,1.77,1.08-2.05.31-.16.84,3.03-.58,1.35.26.14-.7-1.35-.27ZM68.54,48.3l3.94,1.56.29-.74-3.94-1.56-.29.74ZM71.21,49.91c-.5-.3-1.05-.13-1.65.52-.04.04-.06.06-.07.08-.31.38-.59.47-.85.29-.28-.18-.34-.44-.18-.79.19-.33.48-.4.85-.2l.38-.66c-.73-.38-1.32-.23-1.76.44-.44.88-.29,1.56.44,2.03.49.28,1.03.12,1.62-.47.03-.02.06-.05.11-.1.33-.35.61-.45.87-.31.3.19.33.49.11.92-.23.34-.56.39-.98.14l-.4.69c.8.48,1.44.3,1.92-.53.49-.91.36-1.6-.4-2.05ZM70.51,44.98l-.68-.21-.84,2.71.68.21.31-.99,3.37,1.04.22-.72-3.37-1.04.31-.99ZM13.45,20.77c.37.35.55.44.69.66.14.23.42.43.91.93.49.5.68.64.92.92.26.3.51.29.54.97.02.34-.02.76-.02,1.14,0,.38.04.71-.02.81-.06.13-.15.2-.44.17-.08.11.05.62.5.56.45-.06.72-.19.71-.43-.01-.24-.29-.51-.32-.97-.03-.46-.18-1.04-.24-1.2-.05-.15,0-.23.09-.18.08.04.06.19.23.17.17-.02.38-.01.46-.13.08-.12.09-.36-.09-.49-.28-.21-.22-.12-.55-.33-.3-.19-.54-.24-.98-.61-.44-.37-.67-.61-.81-.81-.14-.19-.52-.68-.66-1.17-.14-.49-.82-.98-1.23-.99-.41,0-.6.11-.82.41-.18.17-.43.29-.41.36l.04.05s.72-.45,1.5.15ZM14.7,23.87s-.08.26-.45.47c-.37.22-.27.21-.23.21,0,0,.7.03.94-.16.24-.18.41-.13.55.1.14.23.28.49.29.73.06-.02.08-.03.08-.03,0,0,.21-1.19.01-1.5-.2-.3-.71-.45-1.19.18ZM15.74,20.12c.26.23.77.58.76.74,0,.17-.17.52-.1.63.06.11.11-.43.38-.4.28.03.54.52.64.76.1.24.25.55.29.55s.16-1.23-.26-1.66c-.16-.18-.23-.23-.2-.42.06-.32.03-.41-.04-.87-.07-.46-.12-.73-.21-.73s-.67.5-.94.42c-.27-.08-.22-.49-1.28-.45,0,0-.24,0-.1.21.15.21.77,1.04,1.04,1.22ZM16.64,19.23c.31.19.17.26.09.39s-.56-.24-.53-.37c.03-.13.44-.03.44-.03ZM18.7,22.33c.14-.22.26-.14.34.02.08.16.25.69.25.76s.25-.03.19-.39c-.06-.36-.23-.66-.22-.8,0-.13.36-.22.28-.56-.08-.34-.45-.37-.58-.28-.12.09-.24.33-.31.4-.08.07-.26.11-.16.29.1.18.08.54-.08.71-.15.17-.27.17-.2.21,0,0,.26.05.5-.37ZM23.25,9.98c.38,0,.56.12.45.37-.11.26-.15.45-.12.45s.2-.28.29-.38c.09-.1.11-.19.19-.26.08-.07.4-.37.19-.58-.21-.2-.72-.3-.95-.1-.28.23-.92.36-.8.42,0,0,.36.08.75.07ZM23.74,11.51c-.16.1-.3.24-.37.27-.07.03-.18.07-.17.12,0,0,0,.2.25.06.25-.14.43-.21.65-.53.22-.32.3-.25.45-.54.15-.29.41-.64.49-.77.08-.13.19-.28.14-.35-.06-.07-.37-.06-.42.04-.05.11-.14.28-.24.38-.09.1-.04.23-.18.39-.14.15-.46.84-.61.94ZM24.82,11.15c-.11.24-.2.44-.24.58-.05.15-.12.22-.13.31,0,0,0,.16-.12.17-.11,0-.32-.06-.37.05-.05.11.04.17.09.29.05.13.52,1.05.71.97.18-.09.31-.47.23-.61-.08-.14-.29-.33-.26-.44.03-.11.21-.25.27-.22.06.02-.07.32.07.44.14.12.37.2.18.48-.19.27-.44.84-.52,1.05-.07.21-.21.33-.25.42-.04.09-.11.21.14.3.25.09.22.15.39.03.16-.12.14-.27.18-.47.04-.21.02-.24.1-.47.08-.23.11-.25.13-.4.03-.15.03-.38.08-.38s.24.26.19.35c-.05.09-.21.22-.17.28.04.06.52.35.61.33.09-.01.24-.15.2-.33-.04-.18-.18-.46-.52-.74-.35-.28-.45-.4-.44-.47.02-.07.04.02.16-.18.12-.19.35-.42.35-.55,0-.13-.08-.23-.13-.23s-.28.16-.32.3c-.04.13-.11.17-.15.17-.04,0-.07-.01,0-.17.07-.15.17-.6.16-.78,0-.18.14-.42.15-.51.01-.08-.05-.18-.15-.11-.1.07-.5.29-.61.54ZM25.97,12.66c.16.02.2.01.33.11.12.1.36.28.45.27.09-.01.43-.1.38-.31-.05-.21-.41-.5-.73-.43-.33.07-.46.12-.52.21,0,0-.06.13.09.15ZM35.42,4.15c.19.13.81.52.59.84-.22.32-.56.66-.61.68-.05.01.12.08.48-.13.35-.22.88-.69.99-.57.11.12-.14.3-.31.39-.05.06.04.04.16-.02.12-.06.8-.5.92-.52.12-.01.24-.03.36-.13.12-.1.29-.18.03-.27-.26-.1-.45-.04-.57.05-.11.09-.12.14-.33.16-.21.02-.23.15-.38.08-.15-.07-.07-.41-.22-.48-.15-.08-1.05-.2-1.1-.2,0,0-.21,0-.01.13ZM35.5,7.15c.22-.14.26-.15.51-.23.25-.08.42-.22.49-.35.07-.13.19-.57.41-.57s.31.14.13.36c-.18.22-.03.19.09.11.12-.07.36-.08.45-.05.09.03.25-.08.23-.19-.01-.11-.14-.44-.57-.42-.43.02-.95.64-1.23.65-.28,0-.13-.22-.1-.28,0,0-.01-.09-.13.11-.12.2-.19.35-.5.62-.31.27-.27.4-.24.49.02.09.23-.09.45-.24ZM35.24,10.29c.18-.15.71-.46.94-.86.23-.4.24-.39.33-.59.09-.19.34-.19.45,0,.11.2.26.46.31.62.04.16.14.27.4.46.26.18.43.29.77.2.34-.09.46-.19.85-.17.4.02.44-.09.29-.14-.15-.06-.85-.16-1.56-.62-.71-.46-1.1-.66-1.09-.81.07-.08.32-.32.32-.5,0-.18.1-.47-.52-.68-.06.03-.03.24-.08.36-.05.12-.15.51-.24.46-.09-.06-.41-.4-.55-.48,0,0-.37-.18-.39-.06-.02.12.87.63.83.79-.04.16-.13.26-.22.46-.09.21-.07.44-.19.6-.12.16-.36.44-.55.64-.19.2-.62.42-.6.49.02.07.3-.03.49-.18ZM49.89,5.49c.29-.25,1.06-.75,1.17-.74.1.01.16.11.02.23-.14.12-.6.43-.59.59,0,.17.12.24-.17.42-.29.18-.37.23-.32.23s.48-.16.57-.16.5-.07.45-.19c-.06-.12-.29-.26-.28-.37,0-.11.96-.56,1-.83.04-.28-.18-.37-.27-.36-.09,0-.27.24-.41.28-.14.04-.92.31-1.17.41-.25.1-.67.35-.97.49-.31.14-.42.23-.42.23,0,0,.5.06.69.1.19.03.4-.06.69-.31ZM47.46,8c.16.2.5.26.47,0-.03-.25-.23-.87-.59-1.07,0,0-.05.06.04.29.09.22-.07.58.08.78ZM47.83,9.14c.14,0,.14-.2.1-.36-.04-.15-.26-.34-.34-.37-.08-.02.04.22.04.22.12.22-.06.5.2.5ZM47.31,9.37c.13.06.63.22.96.53.34.3.83.86,1.09,1,.25.14.37.22.68.07.31-.16.83-.35,1.02-.38.08,0,.09-.09-.14-.08-.49.02-.45.02-1.01-.13-.57-.15-.54-.05-.9-.33-.29-.22-.32-.29-.61-.43-.29-.14-1.45-.68-1.6-.75,0,0-.2-.07-.18.04.02.12.55.4.68.45ZM48.49,8.84c.21-.02.22-.62.26-.82.04-.21.24-.39.31-.48.07-.09.22-.06.19.07-.03.13-.07.26-.18.37-.11.11-.1.22-.06.25.04.04.21.21.21.31s-.26.64-.19.68c.07.04.23.09.31-.03.08-.12.12-.64.19-.76.07-.12.49-.32.46-.48-.02-.16-.23-.26-.33-.42-.1-.17.07-.13.07-.39,0-.26-.02-.21.23-.32.25-.12.64-.32.66-.09.02.23-.28.73-.33.95-.05.22-.1.82-.21,1.09-.12.27-.16.44-.28.42-.07-.01-.21-.11-.23-.11s.03.11.07.2c.05.08.17.29.31.28.22-.02.19-.23.22-.44.03-.21.13-.71.25-1.01.12-.3.11-.33.15-.44.04-.11.27-.5.29-.66.01-.16.11-.17.14-.27.03-.1-.1-.41-.46-.31-.36.11-.33.02-.92.4-.59.38-.63.74-.73.59-.1-.15.02-.44.02-.44,0,0-.04.06-.11.17-.06.12-.36.56-.42.78-.07.22-.1.94.11.92ZM49.31,7.29c.04-.07.11-.13.11-.13.03,0,.12.1.1.21-.02.11-.08.09-.18.07-.1-.01-.08-.08-.04-.15ZM49.32,8.04s.06.03.06.11c0,.08-.08.19-.19.1-.11-.1.13-.21.13-.21ZM58.82,15.13c.39-.08.43-.09.78-.19.35-.1.81-.43.92-.49.11-.06.24.04.34.27.1.23.15.5.18.88.04.38.27.82.41.8.14-.02.32-.11.55-.11s.57,0,.61-.04c.04-.05-.42-.05-.83-.39-.4-.34-.71-1.06-.84-1.25-.13-.19-.31-.19-.17-.34.14-.15.84-.77,1.06-.79.22-.01,1.15.18,1.39.11.24-.07.25-.16,0-.34-.25-.18-.85.03-.94-.08-.08-.11.1-.33.29-.47.18-.14.72-.6.71-.81,0-.21-.15-.73-.23-.73-.08,0,.04.1-.13.4-.16.29-1.09,1.45-1.51,1.45s-.82-.4-.82-.4c0,0-.25-.18-.28-.18s.08.34.22.51c.14.16.11.1.12.22,0,.12.16.18.17.25,0,.08-.13.3-.53.56-.41.26-1.11.64-1.59.83-.48.2-1.35.36-1.43.39-.07.03-.02.03.16.04.18.01.97-.03,1.36-.11ZM68.98,20.53c.06-.14.21-.7.19-.93,0,0-.22.43-.36.57-.15.13-.35.25-.2.48.1.15.31.03.38-.11ZM66.63,21.49c.48.03.81.13,1.05.18.24.05.58.07.78.18.2.11.67.33.76.42.09.09.22.37.44.39.22.02.25-.03.31.02.05.06.57.54.65.67.08.13.11.26-.04.24-.15-.02-.66-.36-.89-.53-.23-.17-.82-.42-.91-.48-.09-.06-.07.05.13.16.06.03.11.06.17.09.14.09.28.22.42.38.21.23.53.59.96.66.43.07.66.04.66-.09,0-.12-.06-.24-.31-.49-.12-.12-.24-.16-.32-.24-.07-.07-.13-.11-.21-.2-.16-.17-.21-.16-.08-.25.13-.09.66-.08.96-.1.3-.02,1.17.16,1.45.08.28-.09.43-.32.44-.39,0-.07-.2-.2-.39-.36-.19-.16-.25-.24-.34-.32-.1-.08-.5-.27-.77-.4-.27-.14-.66-.23-.68-.37-.03-.14.03-.17,0-.26-.03-.09-.15-.18-.15-.18,0,0,.08.3-.2.44-.29.14-.6.35-.72.24-.12-.11-.05-.21.04-.34.09-.14.33-.58.42-.77.09-.18.19-.49.16-.59-.03-.1-.07-.08-.07-.08,0,0-.02.01-.11.23-.09.21-.36.65-.42.7-.06.06-.09.04-.11.06-.02.03-.16.19-.26.27-.1.08-.13.21-.03.28.1.07.22.09.2.18-.02.1.02.16-.2.18-.23.01-.68.07-.75.09-.07.02-.06.09.12.09s.7-.02.71.08c.01.1-.02.17.03.25.06.08.14.12.03.27-.11.14-.15.28-.24.27-.09-.01-.34-.24-.77-.4-.43-.16-1.07-.33-1.34-.4-.26-.06-.59-.07-.55-.19.04-.11.41-.24.5-.24s-.21-.11-.46,0c-.25.11-.52.5-.05.53ZM70.63,21.34c.31.02.28-.2.31-.32.03-.1.17,0,.21.03,0,0,0,0,0,0,.17.14-.12.64-.21.73-.09.09-.26.17-.58.11-.32-.06-.6-.23-.59-.46.01-.24.55-.12.86-.09ZM69.77,21.8c.16,0,.92.34,1.14.33.22,0,.37-.75.38-.89.01-.15.12-.09.12-.09.15.12.61.24.83.5.19.22.45.33.46.46,0,.13-.32.07-.55.1-.23.03-1.15.2-1.82.23-.66.04-.75-.08-.77-.18-.02-.1.03-.47.2-.47ZM72.35,21.1c.23-.07.47-.32.28-1.09-.04.05-.04.07-.04.07,0,0-.04.41-.74.43-.48.03-.78.01-.79.06,0,0,.42.19.63.29.21.1.42.31.66.24ZM68.19,21s-.11-.1-.21-.08c-.09.02-.47.03-.52.01-.06-.02-.1.03-.1.03.02.04.17.04.33.06.17.02.45.01.5-.02ZM68.16,22.95c-.21.01-.34.01-.31.05s.44.1.61.18c.17.08.33.04.3-.05-.03-.1-.09-.26-.22-.34-.13-.08-.41-.17-.57-.34-.16-.17-.25-.2-.27-.26,0,0-.06-.1-.07-.16-.01-.06-.11.08-.04.23.07.15.46.31.57.42.11.11.2.26,0,.27ZM65.59,24.34c.03.2.04.67.27.66.23-.02.55-.22.89-.56.34-.34.53-.59.61-.64.08-.05.28-.43.33-.43s.37.17.38.3c0,.13-.24.09-.3.05-.06-.05-.08.05.11.12.18.07.33.21.38.34.05.14.19.08.27.13.08.05.31.24.35.21.05-.03.13-.17.05-.35-.08-.18-.07-.36-.15-.43s-.31-.03-.46-.12c-.15-.09-.44-.29-.56-.41-.12-.12-.1,0-.35-.15-.25-.16-.74-.39-.84-.5,0,0-.16,0-.18-.26-.02-.26-.04-.23-.08-.12-.04.1-.31.38-.05.59.27.21,1.29.4,1.28.6,0,.1-.1.12-.26.26,0,0-.43.42-.64.53-.21.11-.35.14-.43.28-.08.09-.14.02-.2-.06-.06-.08-.12-.23-.2-.34-.07-.11,0-.13-.09-.26-.1-.13-.17-.21-.25-.54-.08-.33-.09-.44-.13-.4-.04.04,0,.52.08.74.07.22.12.57.15.76ZM55.27,58.85l.49.78.93-.61-.52-.74.91-.67.55.74.87-.68-.57-.7.85-.73.62.7.82-.78-.67-.65.8-.8.66.63.76-.82-.7-.59.75-.88.68.57.7-.89-.76-.54.66-.92.75.53.61-.97-.8-.47.56-.99.8.46.52-.97-.82-.43.48-1.03.81.39.43-1.04-.88-.33.4-1.07.87.32.35-1.07-.91-.27.27-1.07.89.21.26-1.09-.89-.17.18-1.12.91.15.15-1.12-.93-.1.09-1.12.93.07.03-1.15h-.93s0-1.14,0-1.14h.93s-.05-1.11-.05-1.11l-.93.03-.09-1.11.9-.1-.14-1.1-.93.15-.2-1.15.9-.15-.23-1.09-.91.22-.28-1.09.86-.26-.32-1.05-.86.34-.39-1.08.86-.34-.44-1.03-.84.39-.48-1.01.83-.43-.54-1.01-.79.47-.57-.96.79-.51-.62-.94-.76.53-.65-.9.74-.56-.69-.88-.7.59-.72-.84.67-.62-.76-.83-.66.66-.79-.8.64-.67-.84-.77-.61.7-.86-.72.58-.71-.89-.68-.56.75-.91-.66.52-.73-.96-.62-.48.8-.94-.57.42-.77-.97-.54-.42.82-1.03-.48.39-.83-1.04-.41-.34.85-1.07-.38.31-.84-1.08-.36-.26.9-1.08-.31.22-.87-1.1-.24-.14.9-1.14-.2.15-.9-1.12-.13-.09.91-1.12-.1.05-.9-1.11-.04v.91s-1.15,0-1.15,0v-.91s-1.14.04-1.14.04l.04.94-1.11.08-.06-.89-1.13.13.13.93-1.11.19-.15-.91-1.12.25.23.89-1.09.31-.23-.89-1.07.36.27.85-1.03.4-.33-.86-1.04.45.37.81-.99.5-.42-.82-1,.54.44.79-.95.58-.49-.8-.95.63.51.76-.89.63-.55-.73-.9.73.57.69-.82.7-.61-.66-.83.77.62.66-.78.79-.65-.66-.75.85.66.62-.71.85-.7-.58-.69.9.72.56-.63.89-.73-.5-.61.93.77.51-.56.94-.79-.44-.51,1,.81.43-.48,1.01-.8-.38-.43,1.04.85.36-.38,1.03-.85-.31-.34,1.08.86.26-.28,1.08-.89-.21-.25,1.1.91.17-.17,1.11-.91-.14-.13,1.12.9.1-.09,1.09-.91-.05-.02,1.13h.89v1.15s-.89,0-.89,0l.02,1.12.95-.04.08,1.14-.89.06.12,1.1.91-.15.21,1.13-.9.16.25,1.12.86-.25.34,1.11-.9.24.36,1.1.85-.31.4,1.05-.84.31.42,1.05.84-.38.46,1.01-.81.4.52,1.01.8-.46.57.97-.78.47.61.96.74-.53.66.9-.73.55.69.89.69-.59.73.85-.68.64.74.79.66-.64.79.79-.64.68.83.75.62-.7.86.75-.57.7.88.68.55-.74.93.65-.52.74.93.61.51-.79.95.57-.44.79,1,.53.42-.84,1.02.5-.39.82,1.04.42.34-.86,1.05.39-.32.88,1.07.33.28-.91,1.05.31-.21.88,1.09.23.18-.91,1.1.2-.13.9,1.14.13.08-.89,1.12.08-.06.92,1.14.02v-.91s1.15,0,1.15,0v.89s1.11-.04,1.11-.04l-.05-.91,1.1-.11.11.89,1.1-.13-.14-.89,1.1-.21.18.9,1.11-.27-.24-.86,1.08-.32.27.89,1.06-.34-.31-.86,1.07-.41.34.87,1.02-.43-.39-.83,1.03-.49.43.83.98-.54-.46-.78.97-.59ZM42.09,61.3c-13.2,0-23.91-10.7-23.91-23.91s10.7-23.91,23.91-23.91,23.91,10.71,23.91,23.91-10.7,23.91-23.91,23.91ZM33.7,31.44h-4.31v5.82l2.12,1.22,2.18-7.04ZM28.87,31.44h-3.54v3.46l3.54,2.1v-5.56ZM42.88,17.92h-3.31v12.7h3.31v-12.7ZM35.85,31.46l-1.12-.53-6.08,19.09-1.32-.49-.73,1.59,1.63.87s2.18.51,2.93.14c.22-.59.33-.9.33-.9l-1.61-.71,5.96-19.06ZM39.22,18.93c-2.39,2.39-4.22,2.06-5.49,2.38-1.28.31-2.97,1.83-2.97,1.83v1.08h8.46v-5.29ZM32.84,53.53h17.7v-4.36h-17.7v4.36ZM58.91,40.7v3.9l.81.39.02,3.74h.82v-3.76l.87-.37v-3.89l-.89-.52v-.47h.02v-.76l.87-.37v-3.89l-.89-.52v-.6c.21-.02.32-.04.32-.04l.03-1.59-7.85.03.07,3.94s4.7-2.22,6.59-2.29c.02,0,.03,0,.05,0v.57l-.84.47v3.9l.81.39.02.74h.02v.5l-.84.47ZM59.52,37.62l.03-1.94.61-.35.65.37-.02,1.92-.63.31-.64-.31ZM60.17,41.33l.65.37-.02,1.92-.63.3-.64-.3.03-1.94.61-.36ZM51.02,37.27l1.26-.86v-4.97l-1.26.03v5.8ZM32.34,28.95h6.87v-1.98h-6.87v1.98ZM46.01,18.01h-2.25v12.66h2.25v-12.66ZM34.39,46.74v1.49h14.37v-1.53l-1.67-2.05h-11.1s-1.59,2.09-1.59,2.09ZM36.42,41.94v1.72h10.53v-1.72h-10.53ZM50.06,31.47h-13.38l-2.52,8.51,1.49.86s10.4.06,11.16,0c.66-.83,3.25-2.82,3.25-2.82v-6.56ZM52.03,30.74l1.44-1.4-4.66-9.99-2.14.89v4.28l2.5,6.22h2.86ZM32.34,31.13h1.55l.36-1.09,2.62,1.07,2.34.02v-1.93h-6.87v1.93ZM39.21,24.8h-6.87v1.93h6.87v-1.93ZM36.77,55.52c-.03.2-.1.34-.2.4-.06.04-.17.09-.44.1h-.08v.47h.63v2.07h.51v-3.11h-.41v.07ZM45.2,56.52h0c-.23,0-.39.08-.52.21.06-.49.23-.75.52-.77.13,0,.31.04.37.37v.07h.51v-.1c-.06-.53-.36-.83-.87-.86-.31,0-.56.13-.75.39-.21.27-.31.7-.31,1.28,0,.45.07.8.2,1.05.18.28.43.42.77.44.34.01.59-.08.74-.28.19-.22.28-.48.28-.79-.02-.62-.34-.97-.92-1.02ZM45.16,58.14c-.19,0-.45-.07-.47-.57.02-.48.27-.54.46-.54.17,0,.42.07.44.54-.02.49-.26.56-.43.58ZM40.17,56.91c.18-.15.29-.35.29-.63-.04-.53-.35-.81-.89-.84-.54.01-.84.32-.89.88h0c0,.28.12.47.31.59-.25.15-.4.38-.4.72,0,.02,0,.03,0,.05,0,.31.1.54.3.71.2.13.42.21.68.22h0c.31,0,.55-.08.71-.24.19-.21.28-.46.28-.75,0-.33-.15-.56-.39-.71ZM39.55,55.96c.34.01.4.19.41.33-.02.25-.14.37-.39.39-.24-.02-.36-.14-.38-.38.02-.23.13-.34.36-.35ZM39.59,58.14c-.3,0-.45-.17-.47-.5.02-.3.16-.44.46-.45.3,0,.45.16.46.49,0,.31-.14.46-.45.46ZM42.32,55.44c-.6.02-.91.39-.94,1.09.02.65.33,1,.91,1.04.21,0,.37-.08.5-.18-.09.5-.25.77-.5.76-.14,0-.33-.04-.37-.4v-.08h-.5v.1c.05.53.35.82.87.83.4,0,.69-.2.86-.61.13-.3.2-.68.2-1.11-.02-.95-.36-1.43-1.01-1.44ZM42.35,57.08c-.14,0-.24-.03-.32-.1-.09-.09-.14-.24-.14-.45.02-.48.26-.55.43-.57.18,0,.42.07.44.53-.01.5-.24.57-.42.58Z"/>
</svg>